#!OML:ASF I:\Random Stuff\random\construction\7_22_03\Session 2\subj1.ASF
:FULLY-SPECIFIED
:DEGREES
676
root -3.85983 17.8492 1.15149 -155.371 82.121 -162.397
lowerback 3.44147 -0.636592 0.721077
upperback -1.6567 -0.723891 2.02999
thorax -3.61915 -0.343213 1.734
lowerneck -20.861 -7.21362 -5.9092
upperneck 26.6055 -9.69272 5.54914
head 12.9498 -4.01307 1.45824
rclavicle 1.78658e-014 2.50469e-014
rhumerus -41.384 -16.8857 -62.837
rradius 14.1094
rwrist 17.1965
rhand -21.3238 17.727
rfingers 7.12502
rthumb 5.06174 -12.1925
lclavicle 1.78658e-014 2.50469e-014
lhumerus -34.5596 -3.0397 89.9837
lradius 34.0088
lwrist 35.7765
lhand -20.5144 59.5319
lfingers 7.12502
lthumb 5.84323 89.4313
rfemur 0.958206 -4.96965 21.1742
rtibia 1.11319e-014
rfoot -4.67021 -17.3578
rtoes 0.00450801
lfemur -11.0457 -23.5109 -9.92002
ltibia 13.795
lfoot -9.9583 18.1856
ltoes -33.9736
677
root -3.86593 17.847 1.13002 -156.149 81.9738 -163.067
lowerback 3.47811 -0.580591 0.620991
upperback -1.75703 -0.655029 1.9492
thorax -3.74504 -0.30734 1.70403
lowerneck -21.1319 -6.79224 -5.4597
upperneck 26.7433 -9.12463 5.18829
head 12.9739 -3.75859 1.34436
rclavicle -2.17421e-014 2.06736e-014
rhumerus -40.9377 -15.919 -64.0071
rradius 14.7
rwrist 15.4957
rhand -21.4824 17.363
rfingers 7.12502
rthumb 4.90861 -12.5601
lclavicle -2.17421e-014 2.06736e-014
lhumerus -34.586 -2.98135 89.8056
lradius 33.4789
lwrist 34.3225
lhand -20.3676 59.2387
lfingers 7.12502
lthumb 5.9849 89.1341
rfemur 1.12233 -5.14872 21.0325
rtibia 4.77083e-015
rfoot -4.65169 -17.2823
rtoes -0.192208
lfemur -11.0841 -23.3769 -10.0962
ltibia 13.994
lfoot -10.0083 17.875
ltoes -34.0513
678
root -3.87158 17.8449 1.11112 -156.396 81.8487 -163.21
lowerback 3.49044 -0.488933 0.567239
upperback -1.83722 -0.535399 1.90147
thorax -3.8379 -0.246686 1.678
lowerneck -21.3766 -6.35934 -5.11083
upperneck 26.838 -8.53132 4.91173
head 12.9895 -3.49399 1.28399
rclavicle -1.01629e-014 9.34288e-015
rhumerus -40.4157 -14.9144 -65.2628
rradius 15.4131
rwrist 13.923
rhand -21.4007 16.8754
rfingers 7.12502
rthumb 4.98741 -13.0459
lclavicle -1.01629e-014 9.34288e-015
lhumerus -34.4721 -2.89263 89.6839
lradius 32.8542
lwrist 32.9246
lhand -20.1027 58.8728
lfingers 7.12502
lthumb 6.24063 88.7608
rfemur 1.27379 -5.27664 20.9667
rtibia 3.18055e-015
rfoot -4.67856 -17.2346
rtoes -0.249576
lfemur -11.1003 -23.2181 -10.197
ltibia 14.1775
lfoot -10.1485 17.564
ltoes -34.0109
679
root -3.87719 17.8434 1.09165 -156.503 81.6787 -163.233
lowerback 3.46108 -0.372261 0.58898
upperback -1.9088 -0.379833 1.83895
thorax -3.89976 -0.17036 1.59111
lowerneck -21.6716 -5.97052 -4.71353
upperneck 27.0214 -7.99929 4.5643
head 13.0536 -3.2579 1.17578
rclavicle -3.28989e-014 1.63003e-014
rhumerus -39.9153 -13.7997 -66.6646
rradius 16.3432
rwrist 12.2276
rhand -21.3715 17.0747
rfingers 7.12502
rthumb 5.01562 -12.846
lclavicle -3.28989e-014 1.63003e-014
lhumerus -34.2621 -2.78853 89.5595
lradius 32.1868
lwrist 31.7772
lhand -19.797 58.394
lfingers 7.12502
lthumb 6.53579 88.2732
rfemur 1.39605 -5.43861 20.9359
rtibia -3.18055e-015
rfoot -4.76479 -17.2213
rtoes -0.00283209
lfemur -11.1523 -23.0977 -10.2476
ltibia 14.3367
lfoot -10.186 17.2814
ltoes -34.149
680
root -3.88258 17.8415 1.06996 -156.726 81.5608 -163.39
lowerback 3.41879 -0.280201 0.550649
upperback -1.9826 -0.25999 1.78782
thorax -3.95505 -0.11012 1.55196
lowerneck -21.9669 -5.55494 -4.24104
upperneck 27.2318 -7.44217 4.16605
head 13.1267 -3.00999 1.03986
rclavicle 9.41742e-015 -3.37934e-015
rhumerus -39.3958 -12.1377 -68.4067
rradius 17.6105
rwrist 10.0568
rhand -21.2467 17.2012
rfingers 7.12502
rthumb 5.13617 -12.7165
lclavicle 9.41742e-015 -3.37934e-015
lhumerus -34.1272 -2.66957 89.4615
lradius 31.6943
lwrist 31.1487
lhand -19.9767 58.2416
lfingers 7.12502
lthumb 6.3623 88.1261
rfemur 1.48728 -5.56073 20.8601
rtibia -1.59028e-015
rfoot -4.83488 -17.2143
rtoes 0.653124
lfemur -11.2102 -23.1267 -10.3365
ltibia 14.4746
lfoot -10.1434 17.2376
ltoes -34.4955
